<svg width="34" height="22" fill="none" xmlns="http://www.w3.org/2000/svg">
  <path
    d="M23.263 14.492l6.319 3.616c.258.146.546.225.84.225.987 0 1.789-.861 1.789-1.928V5.595c0-.315-.072-.625-.21-.904-.463-.94-1.546-1.297-2.42-.799l-6.318 3.616v6.984zm0-9.11l5.48-3.101c1.746-.99 3.911-.283 4.838 1.58.276.55.419 1.166.419 1.79V16.35c0 2.108-1.602 3.817-3.579 3.817a3.411 3.411 0 01-1.678-.446l-5.48-3.104V18c0 2.209-1.736 4-3.878 4H3.878a3.81 3.81 0 01-1.488-.308 3.885 3.885 0 01-1.26-.87 3.995 3.995 0 01-.84-1.296A4.072 4.072 0 010 18V4c0-2.209 1.736-4 3.878-4h15.507c2.142 0 3.878 1.791 3.878 4v1.383zM3.758 1.834c-1.088 0-1.968.911-1.968 2.037v14.262c0 1.123.88 2.035 1.968 2.035h15.747c1.088 0 1.969-.912 1.969-2.037V3.868c0-1.123-.88-2.035-1.969-2.035H3.758zm3.4 7.334c-.475 0-.93-.193-1.265-.537a1.856 1.856 0 01-.525-1.297c0-.486.189-.952.525-1.296.335-.344.79-.537 1.265-.537.475 0 .93.193 1.265.537.336.344.524.81.524 1.296 0 .487-.188.953-.524 1.297-.335.344-.79.537-1.265.537z"
    fill="#CBCBCB" />
</svg>